<?xml version="1.0" encoding="utf-8"?>
<!-- Generator: Adobe Illustrator 27.9.0, SVG Export Plug-In . SVG Version: 6.00 Build 0)  -->
<svg version="1.1" id="Layer_1" xmlns="http://www.w3.org/2000/svg" xmlns:xlink="http://www.w3.org/1999/xlink" x="0px" y="0px"
	 viewBox="0 0 48 48" style="enable-background:new 0 0 48 48;" xml:space="preserve">
<style type="text/css">
	.st0{stroke:#000000;stroke-width:2;stroke-miterlimit:10;}
</style>
<g>
	<path class="st0" d="M20.75,30.23c0.22,0.02,0.43,0.04,0.64,0.05c0.94,0.05,1.88,0.01,2.82-0.07c0.85-0.07,1.7-0.16,2.54-0.3
		c1.25-0.21,2.48-0.47,3.66-0.93c0.68-0.27,1.33-0.58,1.92-1.01c1.14-0.82,1.94-1.89,2.46-3.19c0.35-0.87,0.55-1.77,0.62-2.7
		c0.15-1.99-0.26-3.86-1.17-5.63c-0.85-1.65-2.03-3.03-3.5-4.15c-1.64-1.25-3.47-2.13-5.45-2.7c-1.05-0.31-2.12-0.51-3.21-0.62
		c-0.9-0.09-1.8-0.12-2.7-0.09c-3.13,0.1-6.05,0.94-8.77,2.47C9.66,11.88,8.78,12.5,8,13.24c-0.49,0.47-0.94,0.99-1.29,1.57
		c-0.49,0.83-0.78,1.73-0.78,2.71c-0.01,0.95,0.26,1.83,0.75,2.64c0.51,0.84,1.19,1.52,1.98,2.08c1.09,0.78,2.29,1.3,3.62,1.52
		c0.67,0.11,1.33,0.14,2,0.04c0.16-0.02,0.31-0.07,0.46-0.13c0.19-0.06,0.3-0.19,0.35-0.39c0.05-0.2,0.07-0.39-0.02-0.59
		c-0.04-0.09,0-0.17,0.06-0.23c0.13-0.12,0.29-0.19,0.47-0.2c0.05,0,0.1,0.03,0.15,0.05c0.03,0.01,0.05,0.04,0.08,0.05
		c0.17,0.08,0.25,0.22,0.29,0.39c0.05,0.22,0.02,0.43-0.11,0.63c-0.2,0.31-0.46,0.54-0.79,0.7c-0.39,0.2-0.81,0.31-1.24,0.4
		c-1.03,0.22-2.05,0.17-3.07-0.05c-1.18-0.25-2.29-0.68-3.31-1.33c-0.96-0.61-1.76-1.38-2.34-2.36c-0.48-0.8-0.75-1.67-0.77-2.6
		c-0.02-0.72,0.13-1.41,0.4-2.08c0.33-0.83,0.82-1.55,1.4-2.22c0.71-0.82,1.53-1.52,2.42-2.14c1.3-0.9,2.7-1.59,4.17-2.16
		c1.3-0.51,2.65-0.87,4.02-1.13c0.94-0.18,1.88-0.3,2.83-0.36c1.04-0.07,2.08-0.07,3.12,0.02c1.99,0.16,3.91,0.61,5.76,1.36
		c1.42,0.58,2.75,1.34,3.94,2.31c0.89,0.72,1.7,1.53,2.36,2.47c1.01,1.43,1.68,3,1.96,4.72c0.4,2.51-0.06,4.85-1.46,6.98
		c-0.9,1.37-2.1,2.4-3.57,3.12c-0.94,0.46-1.92,0.81-2.93,1.09c-1.17,0.32-2.35,0.56-3.55,0.73c-1.27,0.18-2.54,0.3-3.82,0.32
		c-0.58,0.01-1.16-0.01-1.74-0.08c-0.06-0.01-0.13,0-0.18,0.02c-0.18,0.07-0.36,0.02-0.54,0.01c-0.06,0-0.09-0.04-0.09-0.1
		c-0.01-0.07-0.02-0.14-0.02-0.21c-0.06-1.5-0.06-2.99-0.09-4.49c-0.02-0.86-0.05-1.72-0.08-2.59c-0.03-0.86-0.07-1.72-0.09-2.58
		c-0.02-0.57,0.01-1.14,0.08-1.7c0.03-0.22,0.06-0.43,0.15-0.63c0.13-0.29,0.37-0.45,0.66-0.54c0.1-0.03,0.2-0.07,0.31-0.05
		c0.1,0.02,0.15,0.07,0.17,0.16c0.02,0.11,0.05,0.22,0.06,0.33c0.02,0.2,0.04,0.41,0.05,0.61c0.07,0.92,0.15,1.84,0.21,2.76
		c0.06,0.88,0.13,1.75,0.17,2.63c0.05,1.22,0.07,2.43,0.11,3.65c0.02,0.49,0.05,0.99,0.07,1.48C20.75,29.97,20.75,30.09,20.75,30.23
		z"/>
	<path class="st0" d="M14.59,35.92c0.04,0,0.08,0.01,0.11,0.01c1.2-0.03,2.4-0.05,3.6-0.08c0.67-0.01,1.34-0.03,2.01-0.04
		c1.31-0.03,2.61-0.06,3.92-0.08c0.74-0.02,1.48-0.03,2.23-0.05c1.32-0.03,2.64-0.06,3.96-0.09c0.65-0.01,1.3-0.02,1.95-0.04
		c1.47-0.03,2.93-0.06,4.4-0.08c0.9-0.01,1.8-0.02,2.71-0.03c0.38-0.01,0.76-0.01,1.13-0.05c0.3-0.03,0.6-0.01,0.9,0
		c0.07,0,0.17-0.02,0.19,0.09c0,0.01,0.03,0.01,0.05,0.02c0.03,0.01,0.07,0.02,0.1,0.04c0.13,0.06,0.15,0.12,0.06,0.22
		c-0.12,0.15-0.26,0.28-0.43,0.37c-0.09,0.05-0.18,0.11-0.27,0.14c-0.09,0.03-0.18,0.04-0.27,0.05c-0.17,0.01-0.34,0.01-0.51,0.01
		c-0.81,0.01-1.62,0.03-2.43,0.04c-0.67,0.01-1.34,0.02-2.01,0.04c-1.6,0.03-3.21,0.06-4.81,0.08c-1.56,0.02-3.13,0.04-4.69,0.06
		c-1.32,0.02-2.64,0.04-3.96,0.05c-1.37,0.02-2.74,0.04-4.11,0.06c-1.52,0.02-3.04,0.05-4.56,0.06c-0.26,0-0.52-0.01-0.77-0.04
		c-0.13-0.02-0.25-0.09-0.36-0.15c-0.04-0.02-0.06-0.1-0.06-0.15c-0.01-0.16-0.02-0.33-0.02-0.49c-0.03-0.6-0.06-1.21-0.08-1.81
		c-0.03-1.04-0.05-2.07-0.07-3.11c-0.01-0.47,0.01-0.95,0.03-1.43c0.01-0.16,0.04-0.32,0.08-0.47c0.04-0.18,0.16-0.29,0.33-0.36
		c0.22-0.09,0.45-0.11,0.68-0.08c0.14,0.02,0.23,0.09,0.29,0.22c0.08,0.19,0.13,0.4,0.16,0.6c0.07,0.55,0.13,1.1,0.19,1.65
		c0.06,0.6,0.1,1.2,0.15,1.81c0.04,0.58,0.08,1.16,0.12,1.74c0.02,0.39,0.04,0.77,0.06,1.16C14.58,35.85,14.59,35.88,14.59,35.92z"
		/>
</g>
</svg>
