<svg xmlns="http://www.w3.org/2000/svg" shape-rendering="geometricPrecision" text-rendering="geometricPrecision" image-rendering="optimizeQuality" fill-rule="evenodd" clip-rule="evenodd" viewBox="0 0 466 511.963"><path d="M76.065 407.914c14.039-10.426 28.933-21.173 36.759-25.606 19.558-11.17 22.836-38.571 14.408-39.74-3.338-.464-14.432 5.326-27.253 12.986-29.561 17.66-74.927 47.317-93.527 76.329-4.228 6.596-6.798 13.085-6.414 18.888.293 4.445 2.788 7.707 8.265 9.366 39.594 15.213 74.422 31.852 102.828 50.41 2.42 1.347 4.619 1.695 6.631 1.203 6.712-1.64 12.585-15.646 14.456-21.588 2.694-8.553 1.685-13.59-5.18-18.337-13.515-9.347-28.999-16.229-44.546-22.911 111.908-7.207 204.019-54.797 269.926-126.745 72.915-79.6 113.669-188.978 113.581-306.364-.004-6.723-.577-10.497-4.081-13.313C458.754-.05 454.777-.219 447.8.144c-10.814.563-16.828 2.624-20.808 9.196-3.403 5.62-4.254 13.816-5.081 27.421-.244 4.014-.617 8.023-.884 12.037-6.55 98.572-45.366 189.537-110.1 255.329C252.351 363.66 172.492 402.6 76.065 407.914z"/></svg>